<svg id="Layer_2" height="512" viewBox="0 0 32 32" width="512" xmlns="http://www.w3.org/2000/svg" data-name="Layer 2"><path d="m16 1a15 15 0 1 0 15 15 15.00543 15.00543 0 0 0 -15-15zm-2.7 23.08a.87165.87165 0 0 1 -.5.24005l-4.81.67a.48635.48635 0 0 1 -.12.01.83177.83177 0 0 1 -.61-.26.86055.86055 0 0 1 -.25-.73l.67-4.81a.81642.81642 0 0 1 .24-.49005l8.17-8.17 5.37 5.37zm11.01-11.02-1.62 1.62-5.37-5.37 1.62-1.62a2.37807 2.37807 0 0 1 3.35 0l2.02 2.02a2.35939 2.35939 0 0 1 .69 1.68 2.31973 2.31973 0 0 1 -.69 1.67z"/></svg>